<svg width="17" height="17" viewBox="0 0 17 17" fill="none" xmlns="http://www.w3.org/2000/svg">
<path d="M3.06299 0C3.81299 0 4.50049 0.3125 5.00049 0.78125C5.21924 0.96875 5.21924 1.28125 5.03174 1.5C4.84424 1.6875 4.53174 1.71875 4.34424 1.53125C4.00049 1.21875 3.56299 1 3.06299 1C2.00049 1 1.18799 1.84375 1.18799 2.90625C1.18799 3.28125 1.28174 3.625 1.46924 3.90625C1.62549 4.125 1.53174 4.4375 1.31299 4.59375C1.09424 4.75 0.781738 4.6875 0.625488 4.4375C0.344238 4 0.187988 3.46875 0.187988 2.90625C0.187988 1.3125 1.46924 0 3.06299 0ZM11.3442 0.78125C11.8442 0.3125 12.5317 0 13.2817 0C14.8755 0 16.188 1.3125 16.188 2.90625C16.188 3.46875 16.0005 4 15.7192 4.4375C15.563 4.6875 15.2505 4.75 15.0317 4.59375C14.813 4.4375 14.7192 4.125 14.8755 3.90625C15.063 3.625 15.188 3.28125 15.188 2.90625C15.188 1.84375 14.3442 1 13.2817 1C12.7817 1 12.3442 1.21875 12.0005 1.53125C11.813 1.71875 11.5005 1.6875 11.313 1.5C11.1255 1.28125 11.1255 0.96875 11.3442 0.78125ZM8.68799 9.25L10.4692 10.625C10.688 10.7812 10.7505 11.0938 10.563 11.3125C10.4067 11.5312 10.0942 11.5938 9.87549 11.4062L7.87549 9.90625C7.75049 9.8125 7.65674 9.65625 7.65674 9.5V5.5C7.65674 5.25 7.90674 5 8.15674 5C8.43799 5 8.68799 5.25 8.68799 5.5V9.25ZM1.31299 15.875C1.12549 15.6875 1.12549 15.3438 1.31299 15.1562L2.87549 13.5938C1.81299 12.375 1.18799 10.7812 1.18799 9C1.18799 5.15625 4.31299 2 8.18799 2C12.0317 2 15.188 5.15625 15.188 9C15.188 10.7812 14.5317 12.375 13.4692 13.5938L15.0317 15.1562C15.2192 15.3438 15.2192 15.6875 15.0317 15.875C14.8442 16.0625 14.5005 16.0625 14.313 15.875L12.7505 14.3125C11.5317 15.375 9.93799 16 8.18799 16C6.40674 16 4.81299 15.375 3.59424 14.3125L2.03174 15.875C1.84424 16.0625 1.50049 16.0625 1.31299 15.875ZM8.15674 15C11.5005 15 14.188 12.3125 14.188 9C14.188 5.6875 11.5005 3 8.15674 3C4.84424 3 2.15674 5.6875 2.15674 9C2.15674 12.3125 4.84424 15 8.15674 15Z" fill="#7438C2"/>
</svg>
