<svg width="45" height="62" viewBox="0 0 45 62" fill="none" xmlns="http://www.w3.org/2000/svg">
<path d="M44.9 23.2349C44.9 33.5016 31.25 51.5849 25.1833 59.1682C23.7833 60.9182 21.1 60.9182 19.7 59.1682C13.75 51.5849 0.100002 33.5016 0.100002 23.2349C0.100002 10.8682 10.1333 0.834902 22.5 0.834902C34.8667 0.834902 44.9 10.8682 44.9 23.2349Z" fill="#003087"/>
<path d="M16.0284 40.1767C16.0284 39.6602 16.4256 39.2232 16.9818 39.2232C17.4983 39.2232 17.9353 39.6602 17.9353 40.1767C17.9353 40.7328 17.4983 41.1301 16.9818 41.1301C16.4256 41.1301 16.0284 40.7328 16.0284 40.1767ZM28.1054 40.1767C28.1054 40.7328 27.6684 41.1301 27.152 41.1301C26.5958 41.1301 26.1985 40.7328 26.1985 40.1767C26.1985 39.6602 26.5958 39.2232 27.152 39.2232C27.6684 39.2232 28.1054 39.6602 28.1054 40.1767ZM30.648 29.0133C30.8863 29.3311 30.9658 29.6887 30.9658 30.0065V41.4479C30.9658 42.4014 30.4493 43.2357 29.6945 43.6727V45.8974C29.6945 46.2549 29.3767 46.533 29.0589 46.533C28.7013 46.533 28.4233 46.2549 28.4233 45.8974V43.9905H15.7105V45.8974C15.7105 46.2549 15.3927 46.533 15.0749 46.533C14.7174 46.533 14.4393 46.2549 14.4393 45.8974V43.6727C13.6447 43.2357 13.168 42.4014 13.168 41.4479V30.0065C13.168 29.6887 13.2077 29.2914 13.4858 28.9736C14.4393 27.8215 17.1407 26.1927 22.0669 26.1927C27.3109 26.1927 29.7343 27.7818 30.648 29.0133ZM14.4393 30.0065H29.6945C29.6945 29.8476 29.6548 29.8079 29.6151 29.7681C29.0192 29.0133 27.0725 27.4639 22.0669 27.4639C17.3791 27.4639 15.1146 29.0133 14.479 29.8079C14.4393 29.8079 14.4393 29.8476 14.4393 30.0065ZM14.4393 31.2778V36.3628H29.6945V31.2778H14.4393ZM29.6945 37.6341H14.4393V41.4479C14.4393 42.163 14.9954 42.7192 15.7105 42.7192H28.4233C29.0986 42.7192 29.6945 42.163 29.6945 41.4479V37.6341Z" fill="#F1F3F6"/>
<path d="M30.0861 16.0372C30.0861 16.3496 29.8085 16.5926 29.4961 16.5926H16.4101L21.2696 21.7992C21.4779 22.0074 21.4779 22.3546 21.2349 22.5628C21.1308 22.6669 20.9919 22.7017 20.8531 22.7017C20.6795 22.7017 20.5407 22.6669 20.4366 22.5281L14.6746 16.419C14.4663 16.2108 14.4663 15.8984 14.6746 15.6901L20.4366 9.58101C20.6448 9.33804 20.9919 9.33804 21.2349 9.5463C21.4779 9.75456 21.4779 10.1017 21.2696 10.3099L16.4101 15.4818H29.4961C29.8085 15.4818 30.0861 15.7595 30.0861 16.0372Z" fill="#F1F3F6"/>
</svg>
