<svg width="45" height="61" viewBox="0 0 45 61" fill="none" xmlns="http://www.w3.org/2000/svg">
<path d="M44.9 22.8755C44.9 33.1422 31.25 51.2255 25.1833 58.8089C23.7833 60.5589 21.1 60.5589 19.7 58.8089C13.75 51.2255 0.100002 33.1422 0.100002 22.8755C0.100002 10.5089 10.1333 0.475527 22.5 0.475527C34.8667 0.475527 44.9 10.5089 44.9 22.8755Z" fill="#003087"/>
<path d="M16.0284 39.8173C16.0284 39.3008 16.4256 38.8638 16.9818 38.8638C17.4983 38.8638 17.9353 39.3008 17.9353 39.8173C17.9353 40.3735 17.4983 40.7707 16.9818 40.7707C16.4256 40.7707 16.0284 40.3735 16.0284 39.8173ZM28.1054 39.8173C28.1054 40.3735 27.6684 40.7707 27.152 40.7707C26.5958 40.7707 26.1985 40.3735 26.1985 39.8173C26.1985 39.3008 26.5958 38.8638 27.152 38.8638C27.6684 38.8638 28.1054 39.3008 28.1054 39.8173ZM30.648 28.6539C30.8863 28.9718 30.9658 29.3293 30.9658 29.6471V41.0886C30.9658 42.042 30.4493 42.8763 29.6945 43.3133V45.538C29.6945 45.8956 29.3767 46.1736 29.0589 46.1736C28.7013 46.1736 28.4233 45.8956 28.4233 45.538V43.6311H15.7105V45.538C15.7105 45.8956 15.3927 46.1736 15.0749 46.1736C14.7174 46.1736 14.4393 45.8956 14.4393 45.538V43.3133C13.6447 42.8763 13.168 42.042 13.168 41.0886V29.6471C13.168 29.3293 13.2077 28.932 13.4858 28.6142C14.4393 27.4621 17.1407 25.8333 22.0669 25.8333C27.3109 25.8333 29.7343 27.4224 30.648 28.6539ZM14.4393 29.6471H29.6945C29.6945 29.4882 29.6548 29.4485 29.6151 29.4088C29.0192 28.6539 27.0725 27.1046 22.0669 27.1046C17.3791 27.1046 15.1146 28.6539 14.479 29.4485C14.4393 29.4485 14.4393 29.4882 14.4393 29.6471ZM14.4393 30.9184V36.0035H29.6945V30.9184H14.4393ZM29.6945 37.2747H14.4393V41.0886C14.4393 41.8037 14.9954 42.3598 15.7105 42.3598H28.4233C29.0986 42.3598 29.6945 41.8037 29.6945 41.0886V37.2747Z" fill="#F1F3F6"/>
<path d="M14.6248 15.6778C14.6248 15.9902 14.9025 16.2332 15.2149 16.2332H28.3008L23.4413 21.4398C23.2331 21.6481 23.2331 21.9952 23.476 22.2034C23.5802 22.3076 23.719 22.3423 23.8578 22.3423C24.0314 22.3423 24.1702 22.3076 24.2744 22.1687L30.0364 16.0596C30.2446 15.8514 30.2446 15.539 30.0364 15.3307L24.2744 9.22164C24.0661 8.97866 23.719 8.97866 23.476 9.18693C23.2331 9.39519 23.2331 9.7423 23.4413 9.95056L28.3008 15.1225H15.2149C14.9025 15.1225 14.6248 15.4001 14.6248 15.6778Z" fill="#F1F3F6"/>
</svg>
