<svg width="17" height="16" viewBox="0 0 17 16" fill="none" xmlns="http://www.w3.org/2000/svg">
<path d="M8.37622 0C3.93872 0 0.376221 3.59375 0.376221 8C0.376221 12.4375 3.93872 16 8.37622 16C12.7825 16 16.3762 12.4375 16.3762 8C16.3762 3.59375 12.7825 0 8.37622 0ZM8.37622 15C4.50122 15 1.37622 11.875 1.37622 8C1.37622 4.15625 4.50122 1 8.37622 1C12.22 1 15.3762 4.15625 15.3762 8C15.3762 11.875 12.22 15 8.37622 15ZM8.37622 9.5C8.62622 9.5 8.87622 9.28125 8.87622 9V4C8.87622 3.75 8.62622 3.5 8.37622 3.5C8.09497 3.5 7.87622 3.75 7.87622 4V9C7.87622 9.28125 8.09497 9.5 8.37622 9.5ZM8.37622 10.75C7.93872 10.75 7.62622 11.0938 7.62622 11.5C7.62622 11.9375 7.93872 12.25 8.37622 12.25C8.78247 12.25 9.12622 11.9375 9.12622 11.5C9.12622 11.0938 8.78247 10.75 8.37622 10.75Z" fill="#D73D09"/>
</svg>
