<svg width="17" height="16" viewBox="0 0 17 16" fill="none" xmlns="http://www.w3.org/2000/svg">
<path d="M7.53174 10.375C7.34424 10.5625 7.00049 10.5625 6.81299 10.375L4.81299 8.375C4.62549 8.1875 4.62549 7.84375 4.81299 7.65625C5.00049 7.46875 5.34424 7.46875 5.53174 7.65625L7.18799 9.3125L10.813 5.65625C11.0005 5.46875 11.3442 5.46875 11.5317 5.65625C11.7192 5.84375 11.7192 6.1875 11.5317 6.375L7.53174 10.375ZM16.188 8C16.188 12.4375 12.5942 16 8.18799 16C3.75049 16 0.187988 12.4375 0.187988 8C0.187988 3.59375 3.75049 0 8.18799 0C12.5942 0 16.188 3.59375 16.188 8ZM8.18799 1C4.31299 1 1.18799 4.15625 1.18799 8C1.18799 11.875 4.31299 15 8.18799 15C12.0317 15 15.188 11.875 15.188 8C15.188 4.15625 12.0317 1 8.18799 1Z" fill="#007B5F"/>
</svg>
