<svg width="9" height="8" viewBox="0 0 9 8" fill="none" xmlns="http://www.w3.org/2000/svg">
<g clip-path="url(#clip0_654_25069)">
<path d="M7.2139 6.43463C7.17524 6.47866 7.12331 6.51153 7.06213 6.52647C6.90377 6.56493 6.74444 6.46768 6.70625 6.30956C6.40368 5.0619 5.73337 3.95428 4.76757 3.10606C3.80176 2.25783 2.61661 1.73588 1.34033 1.5969C1.17833 1.5792 1.06159 1.43401 1.07929 1.272C1.09699 1.11 1.24219 0.993263 1.40419 1.01096C2.80171 1.16323 4.0992 1.73431 5.15666 2.66303C6.21412 3.59174 6.94791 4.80466 7.27932 6.17083C7.30285 6.26801 7.27522 6.36538 7.21418 6.43488L7.2139 6.43463ZM5.4959 6.85334C5.45724 6.89737 5.40531 6.93024 5.34413 6.94518C5.18577 6.98364 5.02644 6.88638 4.98825 6.72826C4.77159 5.83514 4.29166 5.04186 3.60026 4.43463C2.90885 3.8274 2.06025 3.45389 1.14639 3.35461C0.984385 3.33691 0.867372 3.19147 0.88535 3.02971C0.903051 2.86771 1.04849 2.7507 1.21025 2.76867C2.24536 2.88124 3.20633 3.30439 3.98911 3.99187C4.77188 4.67935 5.31555 5.57766 5.5608 6.58957C5.58434 6.68676 5.5567 6.78412 5.49566 6.85362L5.4959 6.85334Z" fill="#007B5F"/>
</g>
<defs>
<clipPath id="clip0_654_25069">
<rect width="3.21977" height="8.06989" fill="white" transform="matrix(0.659888 -0.751364 0.751363 0.659889 0 2.41922)"/>
</clipPath>
</defs>
</svg>
