<svg width="9" height="8" viewBox="0 0 9 8" fill="none" xmlns="http://www.w3.org/2000/svg">
<g clip-path="url(#clip0_654_25083)">
<path d="M7.59012 6.43463C7.55146 6.47866 7.49953 6.51153 7.43835 6.52647C7.27999 6.56493 7.12066 6.46768 7.08247 6.30956C6.7799 5.0619 6.10959 3.95428 5.14379 3.10606C4.17798 2.25783 2.99283 1.73588 1.71655 1.5969C1.55455 1.5792 1.43781 1.43401 1.45551 1.272C1.47321 1.11 1.61841 0.993263 1.78041 1.01096C3.17793 1.16323 4.47543 1.73431 5.53288 2.66303C6.59034 3.59174 7.32413 4.80466 7.65554 6.17083C7.67907 6.26801 7.65144 6.36538 7.5904 6.43488L7.59012 6.43463ZM5.87212 6.85334C5.83346 6.89737 5.78154 6.93024 5.72035 6.94518C5.56199 6.98364 5.40266 6.88638 5.36447 6.72826C5.14782 5.83514 4.66788 5.04186 3.97648 4.43463C3.28507 3.8274 2.43647 3.45389 1.52261 3.35461C1.36061 3.33691 1.24359 3.19147 1.26157 3.02971C1.27927 2.86771 1.42471 2.7507 1.58647 2.76867C2.62158 2.88124 3.58255 3.30439 4.36533 3.99187C5.1481 4.67935 5.69177 5.57766 5.93702 6.58957C5.96056 6.68676 5.93292 6.78412 5.87188 6.85362L5.87212 6.85334Z" fill="#D73D09"/>
</g>
<defs>
<clipPath id="clip0_654_25083">
<rect width="3.21977" height="8.06989" fill="white" transform="matrix(0.659888 -0.751364 0.751363 0.659889 0.376221 2.41922)"/>
</clipPath>
</defs>
</svg>
