<svg width="9" height="8" viewBox="0 0 9 8" fill="none" xmlns="http://www.w3.org/2000/svg">
<g clip-path="url(#clip0_654_25012)">
<path d="M7.40189 6.43463C7.36322 6.47866 7.3113 6.51153 7.25012 6.52647C7.09176 6.56493 6.93243 6.46768 6.89424 6.30956C6.59167 5.0619 5.92136 3.95428 4.95556 3.10606C3.98975 2.25783 2.80459 1.73588 1.52832 1.5969C1.36631 1.5792 1.24958 1.43401 1.26728 1.272C1.28498 1.11 1.43018 0.993263 1.59218 1.01096C2.9897 1.16323 4.28719 1.73431 5.34465 2.66303C6.40211 3.59174 7.1359 4.80466 7.46731 6.17083C7.49084 6.26801 7.46321 6.36538 7.40217 6.43488L7.40189 6.43463ZM5.68389 6.85334C5.64523 6.89737 5.5933 6.93024 5.53212 6.94518C5.37376 6.98364 5.21443 6.88638 5.17624 6.72826C4.95958 5.83514 4.47965 5.04186 3.78824 4.43463C3.09684 3.8274 2.24824 3.45389 1.33438 3.35461C1.17237 3.33691 1.05536 3.19147 1.07334 3.02971C1.09104 2.86771 1.23648 2.7507 1.39824 2.76867C2.43335 2.88124 3.39432 3.30439 4.17709 3.99187C4.95987 4.67935 5.50354 5.57766 5.74879 6.58957C5.77232 6.68676 5.74469 6.78412 5.68365 6.85362L5.68389 6.85334Z" fill="#005EB8"/>
</g>
<defs>
<clipPath id="clip0_654_25012">
<rect width="3.21977" height="8.06989" fill="white" transform="matrix(0.659888 -0.751364 0.751363 0.659889 0.187988 2.41922)"/>
</clipPath>
</defs>
</svg>
