<svg width="24" height="24" viewBox="0 0 24 24" fill="none" xmlns="http://www.w3.org/2000/svg">
<path d="M11.25 16.5V12.75H7.5C7.07812 12.75 6.75 12.4219 6.75 12C6.75 11.625 7.07812 11.25 7.5 11.25H11.25V7.5C11.25 7.125 11.5781 6.75 12 6.75C12.375 6.75 12.75 7.125 12.75 7.5V11.25H16.5C16.875 11.25 17.25 11.625 17.25 12C17.25 12.4219 16.875 12.75 16.5 12.75H12.75V16.5C12.75 16.9219 12.375 17.25 12 17.25C11.5781 17.25 11.25 16.9219 11.25 16.5ZM24 12C24 18.6562 18.6094 24 12 24C5.34375 24 0 18.6562 0 12C0 5.39062 5.34375 0 12 0C18.6094 0 24 5.39062 24 12ZM12 1.5C6.1875 1.5 1.5 6.23438 1.5 12C1.5 17.8125 6.1875 22.5 12 22.5C17.7656 22.5 22.5 17.8125 22.5 12C22.5 6.23438 17.7656 1.5 12 1.5Z" fill="#003087"/>
</svg>
