<svg width="25" height="25" viewBox="0 0 25 25" fill="none" xmlns="http://www.w3.org/2000/svg">
<path d="M2.39822 11.8994L9.98979 3.85049C10.127 3.66756 10.3556 3.62183 10.5386 3.62183C10.7215 3.62183 10.9044 3.66756 11.0416 3.80476C11.3618 4.07915 11.3618 4.53647 11.0874 4.81087L4.68484 11.6707L21.9259 11.6707C22.3375 11.6707 22.6577 11.9908 22.6577 12.3567C22.6577 12.7226 22.3375 13.1342 21.9259 13.1342L4.68484 13.1342L11.0874 19.9483C11.3618 20.2227 11.3618 20.68 11.0416 20.9544C10.7215 21.2288 10.2642 21.2288 9.98979 20.9087L2.39822 12.8598C2.12383 12.5854 2.12383 12.1738 2.39822 11.8994Z" fill="white"/>
</svg>
