<svg width="25" height="25" viewBox="0 0 25 25" fill="none" xmlns="http://www.w3.org/2000/svg">
<path d="M22.6003 13.1004L15.0087 21.1493C14.8715 21.3322 14.6429 21.3779 14.46 21.3779C14.277 21.3779 14.0941 21.3322 13.9569 21.195C13.6368 20.9206 13.6368 20.4633 13.9112 20.1889L20.3137 13.329H3.0726C2.661 13.329 2.34088 13.0089 2.34088 12.643C2.34088 12.2772 2.661 11.8656 3.0726 11.8656H20.3137L13.9112 5.05148C13.6368 4.77708 13.6368 4.31976 13.9569 4.04536C14.277 3.77097 14.7343 3.77097 15.0087 4.0911L22.6003 12.14C22.8747 12.4144 22.8747 12.826 22.6003 13.1004Z" fill="white"/>
</svg>
