<svg width="27" height="78" viewBox="0 0 27 78" fill="none" xmlns="http://www.w3.org/2000/svg">
<rect width="77" height="27" transform="translate(0 77.5) rotate(-90)" fill="#007B5F"/>
<path d="M9.46875 63.3574L18 63.3574L18 64.4707L9.46875 64.4707L9.46875 63.3574ZM9.46875 60.6152L10.3945 60.6152L10.3945 67.207L9.46875 67.207L9.46875 60.6152ZM11.6602 58.3359L18 58.3359L18 59.4258L11.6602 59.4258L11.6602 58.3359ZM9.97852 59.5078C9.80273 59.5078 9.6543 59.4551 9.5332 59.3496C9.41211 59.2402 9.35156 59.0801 9.35156 58.8691C9.35156 58.6621 9.41211 58.5039 9.5332 58.3945C9.6543 58.2812 9.80273 58.2246 9.97852 58.2246C10.1465 58.2246 10.291 58.2812 10.4121 58.3945C10.5293 58.5039 10.5879 58.6621 10.5879 58.8691C10.5879 59.0801 10.5293 59.2402 10.4121 59.3496C10.291 59.4551 10.1465 59.5078 9.97852 59.5078ZM12.9199 55.5176L18 55.5176L18 56.6074L11.6602 56.6074L11.6602 55.5762L12.9199 55.5176ZM14.5898 55.7402L14.5723 56.2441C14.1387 56.2402 13.7383 56.1836 13.3711 56.0742C13 55.9648 12.6777 55.8027 12.4043 55.5879C12.1309 55.373 11.9199 55.1055 11.7715 54.7852C11.6191 54.4648 11.543 54.0937 11.543 53.6719C11.543 53.375 11.5859 53.1016 11.6719 52.8516C11.7539 52.6016 11.8848 52.3848 12.0645 52.2012C12.2441 52.0176 12.4746 51.875 12.7559 51.7734C13.0371 51.6719 13.377 51.6211 13.7754 51.6211L18 51.6211L18 52.7051L13.8281 52.7051C13.4961 52.7051 13.2305 52.7617 13.0312 52.875C12.832 52.9844 12.6875 53.1406 12.5977 53.3437C12.5039 53.5469 12.457 53.7852 12.457 54.0586C12.457 54.3789 12.5137 54.6465 12.627 54.8613C12.7402 55.0762 12.8965 55.248 13.0957 55.377C13.2949 55.5059 13.5234 55.5996 13.7812 55.6582C14.0352 55.7129 14.3047 55.7402 14.5898 55.7402ZM13.9922 51.6328L14.2148 52.3594C13.8672 52.3555 13.5332 52.2988 13.2129 52.1895C12.8926 52.0762 12.6074 51.9141 12.3574 51.7031C12.1074 51.4883 11.9102 51.2246 11.7656 50.9121C11.6172 50.5996 11.543 50.2422 11.543 49.8398C11.543 49.5 11.5879 49.1992 11.6777 48.9375C11.7676 48.6719 11.9062 48.4492 12.0937 48.2695C12.2773 48.0859 12.5137 47.9473 12.8027 47.8535C13.0918 47.7598 13.4355 47.7129 13.834 47.7129L18 47.7129L18 48.8027L13.8223 48.8027C13.4668 48.8027 13.1914 48.8594 12.9961 48.9727C12.7969 49.082 12.6582 49.2383 12.5801 49.4414C12.498 49.6406 12.457 49.8789 12.457 50.1562C12.457 50.3945 12.498 50.6055 12.5801 50.7891C12.6621 50.9727 12.7754 51.127 12.9199 51.252C13.0605 51.377 13.2227 51.4727 13.4062 51.5391C13.5898 51.6016 13.7852 51.6328 13.9922 51.6328ZM18.1172 43.4414C18.1172 43.8828 18.043 44.2832 17.8945 44.6426C17.7422 44.998 17.5293 45.3047 17.2559 45.5625C16.9824 45.8164 16.6582 46.0117 16.2832 46.1484C15.9082 46.2852 15.498 46.3535 15.0527 46.3535L14.8066 46.3535C14.291 46.3535 13.832 46.2773 13.4297 46.125C13.0234 45.9727 12.6797 45.7656 12.3984 45.5039C12.1172 45.2422 11.9043 44.9453 11.7598 44.6133C11.6152 44.2812 11.543 43.9375 11.543 43.582C11.543 43.1289 11.6211 42.7383 11.7773 42.4102C11.9336 42.0781 12.1523 41.8066 12.4336 41.5957C12.7109 41.3848 13.0391 41.2285 13.418 41.127C13.793 41.0254 14.2031 40.9746 14.6484 40.9746L15.1348 40.9746L15.1348 45.709L14.25 45.709L14.25 42.0586L14.168 42.0586C13.8867 42.0742 13.6133 42.1328 13.3477 42.2344C13.082 42.332 12.8633 42.4883 12.6914 42.7031C12.5195 42.918 12.4336 43.2109 12.4336 43.582C12.4336 43.8281 12.4863 44.0547 12.5918 44.2617C12.6934 44.4687 12.8457 44.6465 13.0488 44.7949C13.252 44.9434 13.5 45.0586 13.793 45.1406C14.0859 45.2227 14.4238 45.2637 14.8066 45.2637L15.0527 45.2637C15.3535 45.2637 15.6367 45.2227 15.9023 45.1406C16.1641 45.0547 16.3945 44.9316 16.5937 44.7715C16.793 44.6074 16.9492 44.4102 17.0625 44.1797C17.1758 43.9453 17.2324 43.6797 17.2324 43.3828C17.2324 43 17.1543 42.6758 16.998 42.4102C16.8418 42.1445 16.6328 41.9121 16.3711 41.7129L16.8926 41.0566C17.0996 41.1934 17.2969 41.3672 17.4844 41.5781C17.6719 41.7891 17.8242 42.0488 17.9414 42.3574C18.0586 42.6621 18.1172 43.0234 18.1172 43.4414ZM12.8789 38.625L20.4375 38.625L20.4375 39.7148L11.6602 39.7148L11.6602 38.7187L12.8789 38.625ZM14.7773 34.3535L14.9004 34.3535C15.3613 34.3535 15.7891 34.4082 16.1836 34.5176C16.5742 34.627 16.9141 34.7871 17.2031 34.998C17.4922 35.2051 17.7168 35.4609 17.877 35.7656C18.0371 36.0703 18.1172 36.4199 18.1172 36.8145C18.1172 37.2168 18.0508 37.5723 17.918 37.8809C17.7852 38.1895 17.5918 38.4512 17.3379 38.666C17.084 38.8809 16.7793 39.0527 16.4238 39.1816C16.0684 39.3066 15.668 39.3926 15.2227 39.4395L14.5664 39.4395C14.0977 39.3926 13.6777 39.3047 13.3066 39.1758C12.9355 39.0469 12.6191 38.877 12.3574 38.666C12.0918 38.4512 11.8906 38.1914 11.7539 37.8867C11.6133 37.582 11.543 37.2305 11.543 36.832C11.543 36.4336 11.6211 36.0801 11.7773 35.7715C11.9297 35.4629 12.1484 35.2031 12.4336 34.9922C12.7187 34.7812 13.0605 34.623 13.459 34.5176C13.8535 34.4082 14.293 34.3535 14.7773 34.3535ZM14.9004 35.4434L14.7773 35.4434C14.4609 35.4434 14.1641 35.4766 13.8867 35.543C13.6055 35.6094 13.3594 35.7129 13.1484 35.8535C12.9336 35.9902 12.7656 36.166 12.6445 36.3809C12.5195 36.5957 12.457 36.8516 12.457 37.1484C12.457 37.4219 12.5039 37.6602 12.5977 37.8633C12.6914 38.0625 12.8184 38.2324 12.9785 38.373C13.1348 38.5137 13.3145 38.6289 13.5176 38.7187C13.7168 38.8047 13.9238 38.8691 14.1387 38.9121L15.6562 38.9121C15.9297 38.834 16.1875 38.7246 16.4297 38.584C16.668 38.4434 16.8613 38.2559 17.0098 38.0215C17.1543 37.7871 17.2266 37.4922 17.2266 37.1367C17.2266 36.8437 17.166 36.5918 17.0449 36.3809C16.9199 36.166 16.75 35.9902 16.5352 35.8535C16.3203 35.7129 16.0742 35.6094 15.7969 35.543C15.5156 35.4766 15.2168 35.4434 14.9004 35.4434ZM14.9004 33.2578L14.7656 33.2578C14.3086 33.2578 13.8848 33.1914 13.4941 33.0586C13.0996 32.9258 12.7578 32.7344 12.4687 32.4844C12.1758 32.2344 11.9492 31.9316 11.7891 31.5762C11.625 31.2207 11.543 30.8223 11.543 30.3809C11.543 29.9355 11.625 29.5352 11.7891 29.1797C11.9492 28.8203 12.1758 28.5156 12.4687 28.2656C12.7578 28.0117 13.0996 27.8184 13.4941 27.6855C13.8848 27.5527 14.3086 27.4863 14.7656 27.4863L14.9004 27.4863C15.3574 27.4863 15.7812 27.5527 16.1719 27.6855C16.5625 27.8184 16.9043 28.0117 17.1973 28.2656C17.4863 28.5156 17.7129 28.8184 17.877 29.1738C18.0371 29.5254 18.1172 29.9238 18.1172 30.3691C18.1172 30.8145 18.0371 31.2148 17.877 31.5703C17.7129 31.9258 17.4863 32.2305 17.1973 32.4844C16.9043 32.7344 16.5625 32.9258 16.1719 33.0586C15.7812 33.1914 15.3574 33.2578 14.9004 33.2578ZM14.7656 32.1738L14.9004 32.1738C15.2168 32.1738 15.5156 32.1367 15.7969 32.0625C16.0742 31.9883 16.3203 31.877 16.5352 31.7285C16.75 31.5762 16.9199 31.3867 17.0449 31.1602C17.166 30.9336 17.2266 30.6699 17.2266 30.3691C17.2266 30.0723 17.166 29.8125 17.0449 29.5898C16.9199 29.3633 16.75 29.1758 16.5352 29.0273C16.3203 28.8789 16.0742 28.7676 15.7969 28.6934C15.5156 28.6152 15.2168 28.5762 14.9004 28.5762L14.7656 28.5762C14.4531 28.5762 14.1582 28.6152 13.8809 28.6934C13.5996 28.7676 13.3516 28.8809 13.1367 29.0332C12.918 29.1816 12.7461 29.3691 12.6211 29.5957C12.4961 29.8184 12.4336 30.0801 12.4336 30.3809C12.4336 30.6777 12.4961 30.9395 12.6211 31.166C12.7461 31.3887 12.918 31.5762 13.1367 31.7285C13.3516 31.877 13.5996 31.9883 13.8809 32.0625C14.1582 32.1367 14.4531 32.1738 14.7656 32.1738ZM11.6602 24.9492L18 24.9492L18 26.0391L11.6602 26.0391L11.6602 24.9492ZM9.97851 26.1211C9.80273 26.1211 9.6543 26.0684 9.5332 25.9629C9.41211 25.8535 9.35156 25.6934 9.35156 25.4824C9.35156 25.2754 9.41211 25.1172 9.5332 25.0078C9.6543 24.8945 9.80273 24.8379 9.97851 24.8379C10.1465 24.8379 10.291 24.8945 10.4121 25.0078C10.5293 25.1172 10.5879 25.2754 10.5879 25.4824C10.5879 25.6934 10.5293 25.8535 10.4121 25.9629C10.291 26.0684 10.1465 26.1211 9.97851 26.1211ZM13.0137 22.125L18 22.125L18 23.209L11.6602 23.209L11.6602 22.1836L13.0137 22.125ZM14.5898 22.3828L14.5723 22.834C14.1387 22.8301 13.7383 22.7656 13.3711 22.6406C13 22.5156 12.6777 22.3398 12.4043 22.1133C12.1309 21.8867 11.9199 21.6172 11.7715 21.3047C11.6191 20.9883 11.543 20.6387 11.543 20.2559C11.543 19.9434 11.5859 19.6621 11.6719 19.4121C11.7539 19.1621 11.8867 18.9492 12.0703 18.7734C12.2539 18.5937 12.4922 18.457 12.7852 18.3633C13.0742 18.2695 13.4277 18.2227 13.8457 18.2227L18 18.2227L18 19.3125L13.834 19.3125C13.502 19.3125 13.2363 19.3613 13.0371 19.459C12.834 19.5566 12.6875 19.6992 12.5977 19.8867C12.5039 20.0742 12.457 20.3047 12.457 20.5781C12.457 20.8477 12.5137 21.0937 12.627 21.3164C12.7402 21.5352 12.8965 21.7246 13.0957 21.8848C13.2949 22.041 13.5234 22.1641 13.7812 22.2539C14.0352 22.3398 14.3047 22.3828 14.5898 22.3828ZM11.6602 13.9219L12.4922 13.9219L12.4922 17.3496L11.6602 17.3496L11.6602 13.9219ZM10.1191 16.1895L10.1191 15.1055L16.4297 15.1055C16.6445 15.1055 16.8066 15.0723 16.916 15.0059C17.0254 14.9395 17.0977 14.8535 17.1328 14.748C17.168 14.6426 17.1855 14.5293 17.1855 14.4082C17.1855 14.3184 17.1777 14.2246 17.1621 14.127C17.1426 14.0254 17.127 13.9492 17.1152 13.8984L18 13.8926C18.0273 13.9785 18.0527 14.0918 18.0762 14.2324C18.1035 14.3691 18.1172 14.5352 18.1172 14.7305C18.1172 14.9961 18.0645 15.2402 17.959 15.4629C17.8535 15.6855 17.6777 15.8633 17.4316 15.9961C17.1816 16.125 16.8457 16.1895 16.4238 16.1895L10.1191 16.1895Z" fill="white"/>
</svg>
